<svg t="1623902086932" class="icon" viewBox="0 0 1024 1024" version="1.1" xmlns="http://www.w3.org/2000/svg" p-id="4955" width="200" height="200"><path d="M935.822222 66.56H91.591111c-44.942222 0-79.075556 34.417778-79.075555 79.075556V881.777778c0 42.097778 34.417778 79.075556 79.075555 79.075555H935.822222c42.097778 0 79.075556-36.977778 79.075556-79.075555V145.635556c0-42.382222-34.133333-79.075556-79.075556-79.075556zM271.075556 201.102222c44.942222 0 84.48 36.977778 84.48 84.48s-36.977778 84.48-84.48 84.48c-44.942222 0-84.48-36.977778-84.48-84.48 0-47.786667 39.537778-84.48 84.48-84.48zM210.204444 841.955556c-7.964444 0-15.928889-2.56-23.608888-7.964445-15.928889-13.084444-15.928889-31.573333-2.56-47.502222l163.555555-229.546667c13.084444-13.084444 31.573333-15.928889 47.502222-5.404444l142.506667 100.124444 256-274.488889c13.084444-13.084444 76.515556-81.92 113.493333-5.404444v467.057778c-0.284444 3.128889-696.888889 3.128889-696.888889 3.128889z m0 0"  p-id="4956"></path></svg>