<svg t="1623138457512" class="icon" viewBox="0 0 1024 1024" version="1.1" xmlns="http://www.w3.org/2000/svg" p-id="2590" width="200" height="200"><path d="M758.2 552c-23.4-28.3-58.5-46.8-104.3-55.6 35.1-12.7 61.4-32.2 80.9-57.5 19.5-27.3 29.2-60.4 29.2-99.4 0-53.6-18.5-95.5-55.6-126.7-39-33.1-91.6-48.7-159.9-48.7H230.7v696.1h317.8c74.1 0 131.6-13.6 172.6-40.9 47.8-33.1 72.1-83.8 72.1-154 0.1-47-11.6-85.1-35-113.3zM337 251.7h185.2c46.8 0 81.9 7.8 103.3 24.4 21.4 15.6 32.2 40.9 32.2 76 0 37-10.7 64.3-32.2 81.9-21.4 16.6-56.5 25.3-105.3 25.3H337V251.7z m302.2 499.2c-25.3 13.6-60.4 21.4-105.3 21.4H337V546.1h199.9c50.7 0 88.7 8.8 113.1 27.3 24.4 18.5 37 48.7 37 89.7 0 40-16.6 69.2-47.8 87.8z" p-id="2591"></path></svg>