<svg t="1621411471248" class="icon" viewBox="0 0 1024 1024" width="200" version="1.1" xmlns="http://www.w3.org/2000/svg" p-id="1851" width="200" height="200"><path d="M247.741935 197.532903l6.606452 23.783226h524.552258c13.212903 0 23.783226 10.570323 23.783226 23.783226v524.552258c0 13.212903-10.570323 23.783226-23.783226 23.783226H254.348387c-13.212903 0-23.783226-10.570323-23.783226-23.783226V245.099355c0-13.212903 10.570323-23.783226 23.783226-23.783226l6.606452-23.783226-6.606452-23.783226c-39.63871 0-71.349677 31.710968-71.349677 71.349678v524.552258c0 39.63871 31.710968 71.349677 71.349677 71.349677h524.552258c39.63871 0 71.349677-31.710968 71.349678-71.349677V245.099355c0-39.63871-31.710968-71.349677-71.349678-71.349678H254.348387v23.783226h-6.606452z" p-id="1852"></path><path d="M383.174194 774.276129l-69.367742-1.32129c-13.212903 0-25.765161-5.945806-34.353549-15.855484-8.588387-9.909677-13.212903-23.122581-11.891613-36.335484l6.606452-70.028387c1.32129-13.212903 12.552258-22.461935 25.765161-21.80129 13.212903 1.32129 22.461935 12.552258 21.801291 25.765161l-6.606452 70.028387 70.028387 1.32129c13.212903 0 23.783226 11.230968 23.122581 24.443871-0.660645 13.873548-11.891613 24.443871-25.104516 23.783226z" p-id="1853"></path><path d="M660.645161 260.294194l70.689033 1.32129c13.212903 0 25.765161 5.945806 34.353548 15.855484 8.588387 9.909677 13.212903 23.122581 11.891613 36.335484l-6.606452 68.707096c-1.32129 13.212903-13.212903 22.461935-25.765161 21.140646-13.212903-1.32129-22.461935-13.212903-21.140645-25.765162l6.606451-68.707097-70.689032-1.32129c-13.212903 0-23.783226-11.230968-23.122581-24.443871 0-13.212903 10.570323-23.122581 23.783226-23.12258z" p-id="1854"></path><path d="M334.947097 742.565161L430.08 647.432258c9.249032-9.249032 9.249032-24.443871 0-33.692903-9.249032-9.249032-24.443871-9.249032-33.692903 0l-95.132903 95.132903c-9.249032 9.249032-9.249032 24.443871 0 33.692903 9.249032 9.249032 24.443871 9.249032 33.692903 0" p-id="1855"></path><path d="M650.074839 420.830968l95.132903-95.132903c9.249032-9.249032 9.249032-24.443871 0-33.692904-9.249032-9.249032-24.443871-9.249032-33.692903 0L616.381935 387.138065c-9.249032 9.249032-9.249032 24.443871 0 33.692903 9.249032 9.249032 24.443871 9.249032 33.692904 0" p-id="1856"></path></svg>