<svg t="1622795148776" class="icon" viewBox="0 0 1117 1024" version="1.1" xmlns="http://www.w3.org/2000/svg" p-id="2899" width="200" height="200"><path d="M960.837818 93.090909c59.578182 0 105.704727 43.659636 109.474909 102.027636l0.232728 7.68 0.046545 380.695273a184.971636 184.971636 0 0 0-73.169455-23.877818V202.798545c0-20.107636-12.334545-34.071273-31.278545-36.305454l-5.306182-0.279273H156.253091c-20.107636 0-34.071273 12.334545-36.305455 31.278546l-0.279272 5.306181V788.014545c0 20.107636 12.334545 34.071273 31.278545 36.25891l5.306182 0.279272H251.345455l398.615272-398.615272c38.4-41.890909 103.470545-43.752727 147.456-5.725091l6.144 5.725091 136.424728 136.424727a185.250909 185.250909 0 0 0-71.214546 31.185454l-116.363636-116.410181a35.188364 35.188364 0 0 0-47.057455-3.630546l-4.189091 3.630546L353.745455 824.506182h455.447272c13.963636 29.509818 35.514182 54.690909 62.045091 73.169454H156.299636c-59.578182 0-105.751273-43.659636-109.521454-102.027636L46.545455 787.968V202.798545c0-59.578182 43.659636-105.704727 102.027636-109.474909L156.253091 93.090909h804.584727z m-7.586909 521.029818a31.511273 31.511273 0 0 1 40.261818-3.258182l3.909818 3.258182 110.49891 108.823273A31.232 31.232 0 0 1 1117.090909 744.727273a29.789091 29.789091 0 0 1-6.516364 18.757818l-2.65309 3.025454-110.452364 108.823273a31.650909 31.650909 0 0 1-44.218182 0 30.394182 30.394182 0 0 1-3.304727-39.703273l3.258182-3.816727 57.157818-56.273454h-187.810909A31.045818 31.045818 0 0 1 791.272727 744.727273c0-15.453091 11.543273-28.253091 26.670546-30.487273l4.608-0.325818h187.810909L953.250909 657.687273a30.394182 30.394182 0 0 1 0-43.52zM302.545455 239.383273c62.184727 0 109.707636 47.522909 109.707636 109.707636 0 62.184727-47.522909 109.707636-109.707636 109.707636-62.184727 0-109.707636-47.522909-109.707637-109.707636 0-62.184727 47.522909-109.707636 109.707637-109.707636z m0 73.122909c-21.922909 0-36.584727 14.661818-36.584728 36.584727 0 21.922909 14.661818 36.584727 36.584728 36.584727 21.922909 0 36.584727-14.661818 36.584727-36.584727 0-21.922909-14.661818-36.584727-36.584727-36.584727z" p-id="2900"></path></svg>