<svg t="1622193725835" class="icon" viewBox="0 0 1024 1024" version="1.1" xmlns="http://www.w3.org/2000/svg" p-id="6002" width="200" height="200"><path d="M824.888889 682.666667c-28.444444 0-56.888889 11.377778-79.644445 22.755555l-45.511111-45.511111c22.755556-34.133333 39.822222-73.955556 39.822223-119.466667 0-62.577778-28.444444-119.466667-73.955556-153.6l22.755556-45.511111h22.755555C790.755556 341.333333 853.333333 278.755556 853.333333 199.111111S790.755556 56.888889 711.111111 56.888889 568.888889 119.466667 568.888889 199.111111c0 51.2 28.444444 91.022222 62.577778 119.466667l-17.066667 39.822222c-22.755556-11.377778-45.511111-17.066667-73.955556-17.066667C432.355556 341.333333 341.333333 432.355556 341.333333 540.444444c0 28.444444 5.688889 51.2 17.066667 73.955556l-39.822222 17.066667c-28.444444-34.133333-68.266667-62.577778-119.466667-62.577778C119.466667 568.888889 56.888889 631.466667 56.888889 711.111111S119.466667 853.333333 199.111111 853.333333 341.333333 790.755556 341.333333 711.111111v-22.755555l45.511111-22.755556c34.133333 45.511111 91.022222 73.955556 153.6 73.955556 45.511111 0 85.333333-17.066667 119.466667-39.822223l45.511111 45.511111c-11.377778 22.755556-22.755556 51.2-22.755555 79.644445 0 79.644444 62.577778 142.222222 142.222222 142.222222s142.222222-62.577778 142.222222-142.222222-62.577778-142.222222-142.222222-142.222222z m-113.777778-568.888889c45.511111 0 85.333333 39.822222 85.333333 85.333333S756.622222 284.444444 711.111111 284.444444 625.777778 244.622222 625.777778 199.111111 665.6 113.777778 711.111111 113.777778z m-512 682.666666c-45.511111 0-85.333333-39.822222-85.333333-85.333333S153.6 625.777778 199.111111 625.777778s85.333333 39.822222 85.333333 85.333333S244.622222 796.444444 199.111111 796.444444zM398.222222 540.444444C398.222222 460.8 460.8 398.222222 540.444444 398.222222S682.666667 460.8 682.666667 540.444444 620.088889 682.666667 540.444444 682.666667 398.222222 620.088889 398.222222 540.444444z m426.666667 369.777778c-45.511111 0-85.333333-39.822222-85.333333-85.333333s39.822222-85.333333 85.333333-85.333333 85.333333 39.822222 85.333333 85.333333-39.822222 85.333333-85.333333 85.333333z" fill="#333333" p-id="6003"></path></svg>