<svg t="1622013840600" class="icon" viewBox="0 0 1024 1024" version="1.1" xmlns="http://www.w3.org/2000/svg" p-id="1624" width="200" height="200"><path d="M814.933333 482.133333C716.8 384 597.333333 328.533333 460.8 315.733333V128c0-17.066667-8.533333-34.133333-25.6-38.4-17.066667-8.533333-34.133333-4.266667-46.933333 8.533333L29.866667 473.6c-17.066667 17.066667-17.066667 42.666667 0 59.733333l358.4 392.533334c8.533333 8.533333 21.333333 12.8 34.133333 12.8 4.266667 0 8.533333 0 17.066667-4.266667 17.066667-4.266667 25.6-21.333333 25.6-38.4v-204.8c68.266667-8.533333 128-4.266667 192 12.8 76.8 21.333333 170.666667 93.866667 273.066666 213.333333 12.8 12.8 29.866667 21.333333 51.2 12.8 17.066667-8.533333 29.866667-25.6 25.6-42.666666-21.333333-162.133333-85.333333-298.666667-192-405.333334z" p-id="1625"></path></svg>