<svg t="1623037302838" class="icon" viewBox="0 0 1024 1024" version="1.1" xmlns="http://www.w3.org/2000/svg" p-id="9876" width="200" height="200"><path d="M942.395077 786.116923l-88.694154-281.206154a60.731077 60.731077 0 0 0-57.934769-42.496H727.04c-45.016615 72.822154-107.913846 132.608-149.779692 172.228923l-7.24677 6.892308a84.164923 84.164923 0 0 1-116.184615-0.118154l-8.388923-7.995077c-44.150154-41.865846-105.432615-100.194462-149.188923-171.008H222.72c-26.781538 0-50.412308 17.526154-58.171077 43.126154l-83.101538 274.471385a60.731077 60.731077 0 0 0 72.861538 76.524307l187.392-46.867692a60.731077 60.731077 0 0 1 51.396923 10.515692l148.558769 112.561231c14.848 11.264 34.028308 15.084308 52.066462 10.358154l306.097231-79.950769a60.731077 60.731077 0 0 0 42.574769-77.036308z" fill="#8BE4CE" p-id="9877"></path><path d="M493.686154 599.552c10.24 9.767385 26.308923 9.846154 36.548923 0.078769 65.929846-62.621538 193.772308-178.884923 193.772308-308.657231a212.046769 212.046769 0 1 0-424.054154 0c0 130.205538 126.267077 244.381538 193.772307 308.578462zM512 211.337846a79.596308 79.596308 0 1 1 2.126769 159.232A79.596308 79.596308 0 0 1 512 211.337846z" fill="#409EFF" p-id="9878"></path></svg>