<svg t="1622195983861" class="icon" viewBox="0 0 1024 1024" version="1.1" xmlns="http://www.w3.org/2000/svg" p-id="9858" width="200" height="200"><path d="M632.874667 128a149.418667 149.418667 0 0 0-149.802667 149.376c0 82.56 149.76 269.482667 149.76 269.482667s149.418667-186.538667 149.418667-269.482667A148.821333 148.821333 0 0 0 632.874667 128z m4.522666 218.325333a72.917333 72.917333 0 0 1-73.045333-73.045333c0-40.448 32.597333-73.045333 73.045333-73.045333s73.045333 32.597333 73.045334 73.045333c0 40.405333-33.024 73.045333-73.045334 73.045333z m-186.112-150.229333H242.474667C202.837333 196.096 170.666667 228.266667 170.666667 267.904v234.410667l171.690666 80.469333 101.504-267.818667c-4.522667-15.701333-7.424-30.165333-7.424-42.922666 0-26.88 5.376-52.437333 14.848-75.946667z" fill="#888888" p-id="9859"></path><path d="M818.176 198.997333c9.088 22.698667 14.037333 47.445333 14.037333 73.429334 0 109.354667-198.101333 356.565333-198.101333 356.565333s-85.845333-107.306667-144.426667-211.712l-75.52 199.765333 455.978667 214.186667c0-2.474667 0.426667-4.565333 0.426667-6.613333V267.904c0-32.597333-22.272-60.245333-52.394667-68.906667zM170.666667 589.824v233.941333c0 33.450667 23.125333 61.909333 54.058666 69.76L314.282667 657.066667 170.666667 589.781333zM798.762667 896c6.613333 0 12.8-0.853333 18.986666-2.474667L386.090667 690.901333 308.48 896h490.24z" fill="#888888" p-id="9860"></path></svg>