<svg t="1622014113169" class="icon" viewBox="0 0 1024 1024" version="1.1" xmlns="http://www.w3.org/2000/svg" p-id="2384" width="200" height="200"><path d="M209.066667 482.133333c98.133333-98.133333 213.333333-153.6 349.866666-166.4V128c0-17.066667 8.533333-34.133333 25.6-38.4 17.066667-8.533333 34.133333-4.266667 46.933334 8.533333l358.4 375.466667c17.066667 17.066667 17.066667 42.666667 0 59.733333l-358.4 392.533334c-8.533333 8.533333-21.333333 12.8-29.866667 12.8-4.266667 0-8.533333 0-17.066667-4.266667-17.066667-4.266667-25.6-21.333333-25.6-38.4v-204.8c-68.266667-8.533333-128-4.266667-192 12.8-76.8 21.333333-170.666667 93.866667-273.066666 213.333333-8.533333 17.066667-29.866667 21.333333-46.933334 12.8-17.066667-8.533333-29.866667-25.6-25.6-42.666666 17.066667-162.133333 81.066667-298.666667 187.733334-405.333334z" p-id="2385"></path></svg>