<svg t="1622014188049" class="icon" viewBox="0 0 1024 1024" version="1.1" xmlns="http://www.w3.org/2000/svg" p-id="3206" width="200" height="200"><path d="M956.73 499.9C878.07 324.43 705.62 209.46 512 209.46S145.93 324.43 67.27 499.9c-3 9.08-3 15.12 0 24.2C145.93 699.57 318.37 814.54 512 814.54s366.07-115 444.73-290.44c3-9.08 3-15.12 0-24.2zM512 681.53c-93.24 0-169.53-76.29-169.53-169.53S418.76 342.47 512 342.47 681.53 418.76 681.53 512 605.24 681.53 512 681.53z" p-id="3207"></path><path d="M633 512c0 66.56-54.46 121-121 121s-121-54.44-121-121 54.46-121 121-121 121 54.45 121 121z" p-id="3208"></path></svg>