<svg t="1623920986655" class="icon" viewBox="0 0 1024 1024" version="1.1" xmlns="http://www.w3.org/2000/svg" p-id="10372" width="200" height="200"><path d="M0 0m512 0l0 0q512 0 512 512l0 0q0 512-512 512l0 0q-512 0-512-512l0 0q0-512 512-512Z" fill="#049782" p-id="10373"></path><path d="M697.088 344.32h-92.1856v-29.5424c0-16.2304-13.824-29.4912-30.7456-29.4912h-122.88c-16.896 0-30.72 13.312-30.72 29.4912v29.4656h-92.16c-33.7664 0-61.44 26.5216-61.44 59.008V668.672c0 32.4352 27.6736 59.008 61.44 59.008H697.088c33.7664 0 61.44-26.5216 61.44-59.008V403.2512c0-32.4096-27.6736-58.9568-61.44-58.9568z m-245.8112-14.7712c0-8.832 6.144-14.7712 15.36-14.7712h92.16c9.2416 0 15.36 5.888 15.36 14.7712v14.7456h-122.88v-14.7456z m276.48 339.1232c0 16.256-13.7984 29.4912-30.72 29.4912h-368.64c-16.896 0-30.72-13.312-30.72-29.4912v-162.176h155.136c-1.536 4.4032-1.536 10.2912-1.536 14.7712 0 32.4096 27.648 58.9824 61.44 58.9824 33.792 0 61.44-26.5728 61.44-58.9824 0-4.4288-1.536-10.3168-1.536-14.7712h155.136v162.176z m-245.7856-147.4048c0-5.888 1.536-10.3168 4.608-14.7712h52.2496c3.072 4.4032 4.608 8.832 4.608 14.7712 0 16.2304-13.7728 29.44-30.72 29.44-16.9472 0-30.7456-13.2608-30.7456-29.44z m245.7856-44.2368h-430.08v-73.7792c0-16.2304 13.7984-29.4656 30.72-29.4656H697.088c16.896 0 30.72 13.2864 30.72 29.44v73.8048h-0.0512z" fill="#FFFFFF" p-id="10374"></path></svg>